<?xml version="1.0" encoding="UTF-8" standalone="no"?>
<!DOCTYPE svg PUBLIC "-//W3C//DTD SVG 1.1//EN"
 "http://www.w3.org/Graphics/SVG/1.1/DTD/svg11.dtd">
<!-- Generated by graphviz version 2.40.1 (20161225.0304)
 -->
<!-- Title: G Pages: 1 -->
<svg width="74pt" height="332pt"
 viewBox="0.00 0.00 74.48 332.00" xmlns="http://www.w3.org/2000/svg" xmlns:xlink="http://www.w3.org/1999/xlink">
<g id="graph0" class="graph" transform="scale(1 1) rotate(0) translate(4 328)">
<title>G</title>
<polygon fill="#ffffff" stroke="transparent" points="-4,4 -4,-328 70.4774,-328 70.4774,4 -4,4"/>
<!-- 1 -->
<g id="node1" class="node">
<title>1</title>
<polygon fill="#c1b2ff" stroke="#c1b2ff" points="54,-324 0,-324 0,-288 54,-288 54,-324"/>
<text text-anchor="middle" x="27" y="-302.3" font-family="Times,serif" font-size="14.00" fill="#000000">1</text>
</g>
<!-- 2 -->
<g id="node2" class="node">
<title>2</title>
<polygon fill="#c1b2ff" stroke="#c1b2ff" points="54,-252 0,-252 0,-216 54,-216 54,-252"/>
<text text-anchor="middle" x="27" y="-230.3" font-family="Times,serif" font-size="14.00" fill="#000000">2</text>
</g>
<!-- 1&#45;&gt;2 -->
<g id="edge1" class="edge">
<title>1&#45;&gt;2</title>
<path fill="none" stroke="#23b200" d="M21.0476,-287.8314C20.2972,-280.131 20.0763,-270.9743 20.3849,-262.4166"/>
<polygon fill="#23b200" stroke="#23b200" points="23.8792,-262.6161 21.024,-252.4133 16.8935,-262.1697 23.8792,-262.6161"/>
</g>
<!-- 3 -->
<g id="node3" class="node">
<title>3</title>
<polygon fill="#c1b2ff" stroke="#c1b2ff" points="54,-180 0,-180 0,-144 54,-144 54,-180"/>
<text text-anchor="middle" x="27" y="-158.3" font-family="Times,serif" font-size="14.00" fill="#000000">3</text>
</g>
<!-- 1&#45;&gt;3 -->
<g id="edge2" class="edge">
<title>1&#45;&gt;3</title>
<path fill="none" stroke="#23b200" d="M42.9905,-287.9169C50.6538,-278.0371 59.0166,-265.1563 63,-252 67.6365,-236.6865 67.6365,-231.3135 63,-216 60.0436,-206.2355 54.6748,-196.6229 48.97,-188.2762"/>
<polygon fill="#23b200" stroke="#23b200" points="51.7129,-186.0973 42.9905,-180.0831 46.0586,-190.2239 51.7129,-186.0973"/>
</g>
<!-- 2&#45;&gt;1 -->
<g id="edge3" class="edge">
<title>2&#45;&gt;1</title>
<path fill="none" stroke="#23b200" d="M32.976,-252.4133C33.7071,-260.0593 33.9203,-269.1084 33.6155,-277.5726"/>
<polygon fill="#23b200" stroke="#23b200" points="30.1048,-277.6264 32.9524,-287.8314 37.0902,-278.078 30.1048,-277.6264"/>
</g>
<!-- 2&#45;&gt;3 -->
<g id="edge4" class="edge">
<title>2&#45;&gt;3</title>
<path fill="none" stroke="#23b200" d="M21.0476,-215.8314C20.2972,-208.131 20.0763,-198.9743 20.3849,-190.4166"/>
<polygon fill="#23b200" stroke="#23b200" points="23.8792,-190.6161 21.024,-180.4133 16.8935,-190.1697 23.8792,-190.6161"/>
</g>
<!-- 3&#45;&gt;2 -->
<g id="edge5" class="edge">
<title>3&#45;&gt;2</title>
<path fill="none" stroke="#23b200" d="M32.976,-180.4133C33.7071,-188.0593 33.9203,-197.1084 33.6155,-205.5726"/>
<polygon fill="#23b200" stroke="#23b200" points="30.1048,-205.6264 32.9524,-215.8314 37.0902,-206.078 30.1048,-205.6264"/>
</g>
<!-- 4 -->
<g id="node4" class="node">
<title>4</title>
<polygon fill="#c1b2ff" stroke="#c1b2ff" points="54,-108 0,-108 0,-72 54,-72 54,-108"/>
<text text-anchor="middle" x="27" y="-86.3" font-family="Times,serif" font-size="14.00" fill="#000000">4</text>
</g>
<!-- 3&#45;&gt;4 -->
<g id="edge6" class="edge">
<title>3&#45;&gt;4</title>
<path fill="none" stroke="#23b200" d="M21.0476,-143.8314C20.2972,-136.131 20.0763,-126.9743 20.3849,-118.4166"/>
<polygon fill="#23b200" stroke="#23b200" points="23.8792,-118.6161 21.024,-108.4133 16.8935,-118.1697 23.8792,-118.6161"/>
</g>
<!-- 4&#45;&gt;3 -->
<g id="edge7" class="edge">
<title>4&#45;&gt;3</title>
<path fill="none" stroke="#23b200" d="M32.976,-108.4133C33.7071,-116.0593 33.9203,-125.1084 33.6155,-133.5726"/>
<polygon fill="#23b200" stroke="#23b200" points="30.1048,-133.6264 32.9524,-143.8314 37.0902,-134.078 30.1048,-133.6264"/>
</g>
<!-- 5 -->
<g id="node5" class="node">
<title>5</title>
<polygon fill="#c1b2ff" stroke="#c1b2ff" points="54,-36 0,-36 0,0 54,0 54,-36"/>
<text text-anchor="middle" x="27" y="-14.3" font-family="Times,serif" font-size="14.00" fill="#000000">5</text>
</g>
<!-- 4&#45;&gt;5 -->
<g id="edge8" class="edge">
<title>4&#45;&gt;5</title>
<path fill="none" stroke="#23b200" d="M21.0476,-71.8314C20.2972,-64.131 20.0763,-54.9743 20.3849,-46.4166"/>
<polygon fill="#23b200" stroke="#23b200" points="23.8792,-46.6161 21.024,-36.4133 16.8935,-46.1697 23.8792,-46.6161"/>
</g>
<!-- 5&#45;&gt;3 -->
<g id="edge9" class="edge">
<title>5&#45;&gt;3</title>
<path fill="none" stroke="#23b200" d="M42.9905,-36.0831C50.6538,-45.9629 59.0166,-58.8437 63,-72 67.6365,-87.3135 67.6365,-92.6865 63,-108 60.0436,-117.7645 54.6748,-127.3771 48.97,-135.7238"/>
<polygon fill="#23b200" stroke="#23b200" points="46.0586,-133.7761 42.9905,-143.9169 51.7129,-137.9027 46.0586,-133.7761"/>
</g>
<!-- 5&#45;&gt;4 -->
<g id="edge10" class="edge">
<title>5&#45;&gt;4</title>
<path fill="none" stroke="#23b200" d="M32.976,-36.4133C33.7071,-44.0593 33.9203,-53.1084 33.6155,-61.5726"/>
<polygon fill="#23b200" stroke="#23b200" points="30.1048,-61.6264 32.9524,-71.8314 37.0902,-62.078 30.1048,-61.6264"/>
</g>
</g>
</svg>
